<?xml version="1.0" encoding="utf-8"?>
<!-- Generator: Adobe Illustrator 18.0.0, SVG Export Plug-In . SVG Version: 6.00 Build 0)  -->
<!DOCTYPE svg PUBLIC "-//W3C//DTD SVG 1.1//EN" "http://www.w3.org/Graphics/SVG/1.1/DTD/svg11.dtd">
<svg version="1.1" id="Layer_1" xmlns="http://www.w3.org/2000/svg" xmlns:xlink="http://www.w3.org/1999/xlink" x="0px" y="0px"
	 viewBox="0 0 1900 1080" enable-background="new 0 0 1900 1080" xml:space="preserve">
<g>
	<g>
		<path fill="#546A3D" d="M404.2,427.4c13.6-13.6,27.2-15.8,39.2-10.3c12.3,6.1,23.3,20.7,33,42.2c53.1,119,24.4,322.5-70,361.2
			c-32.6,13.2-81.8,0-125.3-91.8c-60.3-128,13.4-333.6,85.6-383.5c17.5-12.4,56.2,21.6,60.3,31.2c5.4,12.6-6.3,24-11.1,29.6
			c-5,6.4-8.7,13.7-12.4,20.9L404.2,427.4z M342,614.7c-5.3,2.3-10.2-9.2-12.9-14.4c-8.6,43.5-10.6,101.3,10.4,150.6
			c9,21.1,22.8,36.5,38.4,29.9c23-9.8,47.9-50.2,55.9-79.2c25.7-92,25.6-178.8,8.1-223.2c-5.7-14.6-17.9-27.2-28.5-22.7
			c-36.1,15.4-64.4,86.4-65.5,137.4C347.4,598.8,346.9,612.6,342,614.7z"/>
	</g>
	<g>
		<path fill="#546A3D" d="M1071.9,795.4c-9.5,18.4-22.1,27.6-37.7,27.6c-6.6,0-11.9-2.5-15.8-7.4c-3.9-4.9-7-11.4-9.3-19.4
			c-2.3-8-4.4-17.1-6.1-27.2c-1.8-10.1-3.6-20.6-5.6-31.4c-13.6,24.5-30.9,44.9-51.7,61.1c-20.8,16.3-44.3,24.4-70.4,24.4
			c-19.9,0-36.1-4.2-48.8-12.7c-12.7-8.5-22.2-20-28.6-34.6c-6.4-14.6-9.8-31.7-10.2-51.2c-0.4-19.5,2.1-40.4,7.6-62.5
			c5.1-21.2,12.7-42.2,22.8-62.9c10.1-20.7,22.1-39.2,35.9-55.5c13.8-16.3,29-29.4,45.6-39.6c16.6-10.1,34-15.2,52.3-15.2h2.3
			c26.9,0,46,11.1,57.3,33.2c11.3,22.1,15,51.6,11.1,88.3l60.2-113.1h51.4l-111.6,204.9c-1.6,5.7-2,12.7-1.5,21.2
			c0.6,8.5,2,16.5,4.4,24c2.3,7.5,5.3,14,8.8,19.4c3.5,5.4,7.4,8.1,11.7,8.1c5.5,0,11.7-4.2,18.7-12.7c7-8.5,13.8-21.4,20.4-38.9
			h11.7C1089.7,753,1081.5,777,1071.9,795.4z M998,615.5c0.8-16.7-0.3-32.3-3.2-46.6c-2.9-14.4-8.1-26.4-15.5-36
			c-7.4-9.7-18.1-14.5-32.1-14.5c-34.3,0-64.7,45.7-91.1,137.1c-4.7,20.7-7.7,39.6-9.1,56.5c-1.4,17-1.1,31.6,0.9,43.8
			c1.9,12.3,5.7,21.8,11.4,28.6c5.6,6.8,13.1,10.2,22.5,10.2h2.3c9.7,0,20.3-4.6,31.8-13.8c11.5-9.2,22.5-20.5,33-33.9
			c10.5-13.4,19.8-27.6,27.8-42.4c8-14.8,13.3-28.1,16.1-39.9l0.6-2.8C995.7,647.7,997.2,632.3,998,615.5z"/>
		<path fill="#546A3D" d="M1178.6,554.4c-12.1,0-23.1,4.6-33,13.8c-9.9,9.2-22.1,25.3-36.5,48.4h-12.9c4.7-13.2,11-27.3,19-42.4
			c8-15.1,17.1-28.7,27.5-41c10.3-12.2,21.6-22.5,33.9-30.7c12.3-8.2,25-12.4,38.3-12.4h131.5l-15.2,64.3h-85.3
			c-3.5,9-8.4,23.1-14.6,42.4c-6.2,19.3-11.9,39.6-16.9,60.8c-3.1,13.7-5.8,27-7.9,39.9c-2.1,13-3.1,24.5-2.9,34.6
			c0.2,10.1,1.8,18.3,5,24.4c3.1,6.1,8.2,9.2,15.2,9.2c7.8,0,16-4.8,24.5-14.5c8.6-9.7,15.2-22,19.9-37.1h11.7
			c-0.4,1.9-0.9,4.8-1.5,8.8c-0.6,4-1.3,7.7-2,11c-3.1,12.7-7.6,24.7-13.4,36s-12.6,21.2-20.2,29.7s-15.8,15.2-24.5,20.1
			c-8.8,4.9-17.8,7.4-27.2,7.4c-19.1,0-30.6-10.7-34.5-32.2c-3.9-21.4-1-52.9,8.8-94.3c3.9-15.5,9-33.7,15.2-54.4
			c6.2-20.7,13.4-43.8,21.6-69.3l7-22.6H1178.6z"/>
		<path fill="#546A3D" d="M1575.6,795.4c-9.5,18.4-22.1,27.6-37.7,27.6c-6.6,0-11.9-2.5-15.8-7.4c-3.9-4.9-7-11.4-9.3-19.4
			c-2.3-8-4.4-17.1-6.1-27.2c-1.8-10.1-3.6-20.6-5.6-31.4c-13.6,24.5-30.9,44.9-51.7,61.1c-20.8,16.3-44.3,24.4-70.4,24.4
			c-19.9,0-36.1-4.2-48.8-12.7c-12.7-8.5-22.2-20-28.6-34.6c-6.4-14.6-9.8-31.7-10.2-51.2c-0.4-19.5,2.1-40.4,7.6-62.5
			c5.1-21.2,12.7-42.2,22.8-62.9c10.1-20.7,22.1-39.2,35.9-55.5c13.8-16.3,29-29.4,45.6-39.6c16.6-10.1,34-15.2,52.3-15.2h2.3
			c26.9,0,46,11.1,57.3,33.2c11.3,22.1,15,51.6,11.1,88.3l60.2-113.1h51.4l-111.6,204.9c-1.6,5.7-2,12.7-1.5,21.2
			c0.6,8.5,2,16.5,4.4,24c2.3,7.5,5.3,14,8.8,19.4c3.5,5.4,7.4,8.1,11.7,8.1c5.5,0,11.7-4.2,18.7-12.7c7-8.5,13.8-21.4,20.4-38.9
			h11.7C1593.4,753,1585.1,777,1575.6,795.4z M1501.7,615.5c0.8-16.7-0.3-32.3-3.2-46.6c-2.9-14.4-8.1-26.4-15.5-36
			c-7.4-9.7-18.1-14.5-32.1-14.5c-34.3,0-64.7,45.7-91.1,137.1c-4.7,20.7-7.7,39.6-9.1,56.5c-1.4,17-1.1,31.6,0.9,43.8
			c1.9,12.3,5.7,21.8,11.4,28.6c5.6,6.8,13.1,10.2,22.5,10.2h2.3c9.7,0,20.3-4.6,31.8-13.8c11.5-9.2,22.5-20.5,33-33.9
			c10.5-13.4,19.8-27.6,27.8-42.4c8-14.8,13.3-28.1,16.1-39.9l0.6-2.8C1499.3,647.7,1500.9,632.3,1501.7,615.5z"/>
	</g>
	<g>
		<path fill="#86A94A" d="M883,476.6h16.5v3.5h-20.4v-32.2h19.6v3.5H883v10.4h13.9v3.5H883V476.6z"/>
		<path fill="#86A94A" d="M928.3,460.9l8.9-13.1h4.4l-10.9,15.9l11.4,16.4h-4.4l-9.4-13.7h-0.1l-9.4,13.7h-4.5l11.5-16.5l-10.8-15.8
			h4.3L928.3,460.9L928.3,460.9z"/>
		<path fill="#86A94A" d="M969.8,480.1h-3.9v-28.7h-10.8v-3.5h25.5v3.5h-10.8V480.1z"/>
		<path fill="#86A94A" d="M1001.1,466.8v13.3h-3.9v-32.2h8.3c1.4,0,2.6,0.1,3.6,0.2c1,0.1,1.9,0.3,2.7,0.5c2.2,0.6,4,1.6,5.1,3.1
			c1.2,1.5,1.8,3.3,1.8,5.5c0,1.3-0.2,2.5-0.6,3.5c-0.4,1-1,1.9-1.8,2.7c-0.8,0.8-1.7,1.4-2.7,1.9c-1.1,0.5-2.2,0.8-3.5,1.1v0.1
			l9.5,13.8h-3.9l-9.9-13.3H1001.1z M1001.1,451.4v11.8h3.9c1.2,0,2.2,0,3.1-0.1c0.9-0.1,1.6-0.2,2.3-0.4c1.4-0.4,2.4-1.1,3.2-2
			c0.7-0.9,1.1-2.1,1.1-3.6c0-1.4-0.4-2.5-1.1-3.3c-0.7-0.8-1.6-1.4-2.9-1.8c-0.6-0.2-1.3-0.3-2.1-0.4c-0.8-0.1-1.8-0.1-3.1-0.1
			H1001.1z"/>
		<path fill="#86A94A" d="M1034.6,480.1l13.1-32.2h3.4l13.1,32.2h-4.3l-3.8-9.7h-13.5l-3.8,9.7H1034.6z M1049.4,452.9
			c-1.4,4-2.8,7.7-4.1,10.9l-1.2,3h10.7l-1.2-3C1052.2,460.5,1050.9,456.9,1049.4,452.9L1049.4,452.9z"/>
		<path fill="#86A94A" d="M1109.6,475.1c1.2-3.5,2.4-7.1,3.8-10.6l6.2-16.6h3.9l-12.2,32.2h-3.4l-12.2-32.2h3.9l6.2,16.6
			C1107.1,468,1108.4,471.6,1109.6,475.1L1109.6,475.1z"/>
		<path fill="#86A94A" d="M1140.3,480.1v-32.2h3.9v32.2H1140.3z"/>
		<path fill="#86A94A" d="M1167.8,466.8v13.3h-3.9v-32.2h8.3c1.4,0,2.6,0.1,3.6,0.2c1,0.1,1.9,0.3,2.7,0.5c2.2,0.6,4,1.6,5.1,3.1
			c1.2,1.5,1.8,3.3,1.8,5.5c0,1.3-0.2,2.5-0.6,3.5c-0.4,1-1,1.9-1.8,2.7c-0.8,0.8-1.7,1.4-2.7,1.9c-1.1,0.5-2.2,0.8-3.5,1.1v0.1
			l9.5,13.8h-3.9l-9.9-13.3H1167.8z M1167.8,451.4v11.8h3.9c1.2,0,2.2,0,3.1-0.1c0.9-0.1,1.6-0.2,2.3-0.4c1.4-0.4,2.4-1.1,3.2-2
			c0.7-0.9,1.1-2.1,1.1-3.6c0-1.4-0.4-2.5-1.1-3.3c-0.7-0.8-1.6-1.4-2.9-1.8c-0.6-0.2-1.3-0.3-2.1-0.4c-0.8-0.1-1.8-0.1-3.1-0.1
			H1167.8z"/>
		<path fill="#86A94A" d="M1225.7,467.1h-7.3v-3.5h11.3v15.6c-0.3,0.2-0.8,0.4-1.5,0.5c-0.7,0.2-1.4,0.4-2.2,0.5s-1.7,0.3-2.7,0.4
			c-1,0.1-1.9,0.1-2.8,0.1c-2.8,0-5.2-0.4-7.3-1.1c-2.1-0.8-3.9-1.8-5.3-3.2c-1.4-1.4-2.5-3.1-3.3-5s-1.1-4.2-1.1-6.6
			c0-2.6,0.4-5,1.2-7.2c0.8-2.2,2-4,3.5-5.5c1.5-1.5,3.4-2.7,5.6-3.5s4.6-1.2,7.2-1.2c0.7,0,1.4,0,2.1,0.1c0.7,0.1,1.4,0.1,2,0.2
			c0.6,0.1,1.2,0.2,1.8,0.4c0.5,0.1,1,0.3,1.4,0.5v3.5c-1-0.3-2.1-0.6-3.3-0.8c-1.3-0.2-2.5-0.3-3.8-0.3c-1.8,0-3.6,0.3-5.2,0.8
			c-1.7,0.6-3.1,1.4-4.4,2.5c-1.3,1.1-2.3,2.5-3,4.2c-0.8,1.7-1.1,3.7-1.1,6c0,2.2,0.3,4.2,0.9,5.8c0.6,1.6,1.5,3,2.7,4
			c1.1,1.1,2.5,1.8,4.2,2.3c1.6,0.5,3.5,0.8,5.5,0.8c0.9,0,1.8,0,2.7-0.1c0.9-0.1,1.7-0.2,2.4-0.4V467.1z"/>
		<path fill="#86A94A" d="M1249.1,480.1v-32.2h3.9v32.2H1249.1z"/>
		<path fill="#86A94A" d="M1289.4,465.9c2,2.8,3.9,5.8,5.9,8.8h0.1c-0.2-3.1-0.3-6.3-0.3-9.6v-17.1h4v32.2h-3.9l-12.6-18
			c-2.2-3.1-4.1-6.1-5.9-8.8h-0.1c0.2,2.9,0.3,6.4,0.3,10.3v16.5h-3.9v-32.2h3.9L1289.4,465.9z"/>
		<path fill="#86A94A" d="M1367,464c0,2.4-0.4,4.7-1.1,6.7c-0.7,2-1.7,3.8-3,5.3c-1.3,1.5-2.9,2.6-4.7,3.5c-1.8,0.8-3.9,1.2-6.2,1.2
			c-2.4,0-4.5-0.4-6.3-1.2s-3.4-2-4.7-3.5c-1.3-1.5-2.3-3.2-3-5.3c-0.7-2-1-4.3-1-6.7c0-2.5,0.4-4.7,1.1-6.8c0.7-2,1.7-3.8,3-5.3
			c1.3-1.5,2.9-2.6,4.7-3.5s3.9-1.2,6.2-1.2c2.3,0,4.4,0.4,6.3,1.2s3.4,2,4.7,3.5c1.3,1.5,2.3,3.2,3,5.3
			C1366.6,459.3,1367,461.6,1367,464z M1363.1,464c0-2.2-0.3-4.1-0.9-5.7s-1.4-3-2.3-4.1c-1-1.1-2.2-1.9-3.5-2.5
			c-1.4-0.6-2.8-0.9-4.4-0.9c-1.6,0-3,0.3-4.4,0.9c-1.4,0.6-2.5,1.4-3.5,2.5c-1,1.1-1.8,2.5-2.3,4.1c-0.6,1.7-0.9,3.6-0.9,5.7
			c0,2.2,0.3,4.1,0.9,5.7s1.4,3,2.4,4.1c1,1.1,2.2,1.9,3.5,2.5c1.4,0.6,2.8,0.8,4.4,0.8c1.6,0,3-0.3,4.3-0.8
			c1.3-0.6,2.5-1.4,3.5-2.5s1.8-2.5,2.3-4.1S1363.1,466.2,1363.1,464z"/>
		<path fill="#86A94A" d="M1389.7,447.9v28.7h15.7v3.5h-19.7v-32.2H1389.7z"/>
		<path fill="#86A94A" d="M1423,480.1v-32.2h3.9v32.2H1423z"/>
		<path fill="#86A94A" d="M1457.5,475.1c1.2-3.5,2.4-7.1,3.8-10.6l6.2-16.6h3.9l-12.2,32.2h-3.4l-12.2-32.2h3.9l6.2,16.6
			C1455,468,1456.2,471.6,1457.5,475.1L1457.5,475.1z"/>
		<path fill="#86A94A" d="M1492,476.6h16.5v3.5h-20.4v-32.2h19.6v3.5H1492v10.4h13.9v3.5H1492V476.6z"/>
		<path fill="#86A94A" d="M1575.1,464c0,2.4-0.4,4.7-1.1,6.7c-0.7,2-1.7,3.8-3,5.3c-1.3,1.5-2.9,2.6-4.7,3.5
			c-1.8,0.8-3.9,1.2-6.2,1.2c-2.4,0-4.5-0.4-6.3-1.2s-3.4-2-4.7-3.5c-1.3-1.5-2.3-3.2-3-5.3c-0.7-2-1-4.3-1-6.7
			c0-2.5,0.4-4.7,1.1-6.8c0.7-2,1.7-3.8,3-5.3c1.3-1.5,2.9-2.6,4.7-3.5s3.9-1.2,6.2-1.2c2.3,0,4.4,0.4,6.3,1.2s3.4,2,4.7,3.5
			c1.3,1.5,2.3,3.2,3,5.3C1574.8,459.3,1575.1,461.6,1575.1,464z M1571.2,464c0-2.2-0.3-4.1-0.9-5.7s-1.4-3-2.3-4.1
			c-1-1.1-2.2-1.9-3.5-2.5c-1.4-0.6-2.8-0.9-4.4-0.9c-1.6,0-3,0.3-4.4,0.9c-1.4,0.6-2.5,1.4-3.5,2.5c-1,1.1-1.8,2.5-2.3,4.1
			c-0.6,1.7-0.9,3.6-0.9,5.7c0,2.2,0.3,4.1,0.9,5.7s1.4,3,2.4,4.1c1,1.1,2.2,1.9,3.5,2.5c1.4,0.6,2.8,0.8,4.4,0.8
			c1.6,0,3-0.3,4.3-0.8c1.3-0.6,2.5-1.4,3.5-2.5s1.8-2.5,2.3-4.1S1571.2,466.2,1571.2,464z"/>
		<path fill="#86A94A" d="M1593.9,480.1v-32.2h3.9v32.2H1593.9z"/>
		<path fill="#86A94A" d="M1621.5,447.9v28.7h15.7v3.5h-19.7v-32.2H1621.5z"/>
	</g>
	<g>
		<path fill="#546A3D" d="M810.3,819.7c-5.3-1.5-14.1-2.7-19.6-2.7c0,0-8.4,0-13.6-1.5c-8.3-2.4-18.9-4.4-24.8-11.2
			c-10.2-11.8-12.1-28.1-9.2-42.9c1.5-7.7,3.7-15.5,6-23c0.4-1.2,0.4-1.2,0.4-1.2c0.4-1.3-3-0.1-7.7,2.8l-37.5,22.8
			c-4.7,2.9-12.2,7.8-16.6,11.1l-54.3,39.5c-4.4,3.2-3.6,6,1.9,6.2l184,5.3c5.5,0.2,5.7-0.9,0.4-2.5L810.3,819.7z"/>
	</g>
	<g>
		<path fill="#546A3D" d="M736.4,507.9c0,0,0.6,5.9,1.4,13.2c0.7,7.3,4,15.2,7.3,17.6c3.3,2.4,7.1,7.3,8.5,10.7
			c1.4,3.5,3.9,12,5.4,18.8c1.6,6.9,3.1,18.7,3.4,26.4s-0.3,24.9-1.3,38.4s-4.6,33-8,43.5c-3.4,10.5-14.1,34-23.8,52.3
			c-9.7,18.3-10.6,42.9-2.1,54.7c8.6,11.8,15.6,15.7,15.6,8.5s2.7-20.3,5.9-29.3s10.3-26.7,15.7-39.3s11.7-42,14.1-65.2
			c2.4-23.2,2.2-54.5-0.5-69.4c-2.7-14.9-13.3-43.7-23.7-64c-10.3-20.3-18.8-36.9-18.8-36.9"/>
	</g>
	<g>
		<path fill="#546A3D" d="M671.3,786.1c0,0,8.8-8.2,19.6-18.3c10.8-10.1,25.2-25.9,31.9-35.2c6.8-9.3,16.2-23.4,21-31.4
			c4.8-8,3.3,6-3.3,31c-6.6,25-19.7,49.5-29.2,54.3c-9.4,4.9-17.1,8.8-17.1,8.8"/>
	</g>
	<polygon fill="#546A3D" points="776.3,696.4 782.3,678.8 785.7,651.4 787,626.7 786.3,603.2 782.3,579.1 777,560.9 762.3,530.9 
		738.3,492.5 775,600.6 765,719.1 	"/>
	<g>
		<path fill="#86A94A" d="M785,546.9c-3.7,5.9-8.2,4.4-10-3.3c-1.8-7.7-3.5-19.7-3.7-26.7c-0.2-7,0.7-19.3,2-27.4s4.6-20.5,7.3-27.7
			c2.8-7.2,8.4-20.6,12.7-30c4.2-9.3,13.7-24.7,21-34.2c7.3-9.5,19.5-23,27-30s21-18.3,30-25.1s30.3-18.7,47.3-26.4
			c17-7.7,29.3-9.5,27.3-3.9s-12.2,23.6-22.7,40.1c-10.4,16.5-25.1,40.4-32.7,53.1c-7.5,12.7-17.4,30.5-22,39.4
			c-4.6,9-12.7,25.5-18,36.8c-5.3,11.3-12.1,24.8-15,30c-2.9,5.2-10.6,15.9-17,23.8c-6.4,7.9-17.2,19.8-24,26.4s-9.3,5.2-5.7-3.3
			s9.8-22.8,13.7-31.9c3.8-9.1,9.5-23.9,12.7-32.9c3.1-9,8.4-24.3,11.7-34.2s8.3-23,11-29.3s7.5-16.4,10.7-22.5
			c3.1-6.1,11.1-17.7,17.7-25.7c6.6-8.1,7.4-10.1,1.7-4.6c-5.7,5.6-14.5,15.2-19.7,21.5c-5.1,6.3-12.8,16.7-17,23.1
			s-10.2,19.1-13.3,28c-3.1,9-8.1,26-11,37.8s-7.6,27.5-10.3,34.8C793.9,530.2,788.7,541,785,546.9z"/>
	</g>
	<g>
		<path fill="#86A94A" d="M727.6,472.2c7.3,6.3,14.3,9.1,15.6,6.2c1.3-2.9,2.8-9.7,3.4-15c0.6-5.4,0-15.4-1.3-22.2
			c-1.3-6.8-5.2-18-8.7-24.8s-10.2-17.5-15-23.8c-4.8-6.3-14.4-15.9-21.3-21.5c-7-5.6-22.6-17.9-34.7-27.4
			c-12.1-9.5-29.8-23.3-39.3-30.6c-9.5-7.3-28-23.5-41-35.8c-13-12.4-31.8-30.4-41.7-40.1s-24.2-23.6-31.7-30.9s-14.7-9.5-15.8-4.9
			s-2.1,18.9-2.1,31.8s2.3,31.7,5.2,42c2.8,10.3,7.7,24,10.8,30.5c3.1,6.4,10.8,20.2,17,30.6c6.2,10.4,16.4,24.6,22.7,31.6
			c6.2,7,18.4,20.2,27,29.3c8.6,9.1,22.3,22.5,30.3,29.6s21.9,18.5,30.7,25.1c8.8,6.6,23.9,16.6,33.7,22.1s26.2,13,36.7,16.6
			s13.8,1.2,7.3-5.2c-6.4-6.4-17.4-16.9-24.3-23.1s-18.8-16.5-26.3-22.8c-7.5-6.3-20.3-16.4-28.3-22.5c-8.1-6.1-21.3-17.1-29.3-24.4
			c-8.1-7.3-18.7-17.9-23.7-23.5c-4.9-5.6-13.2-15.1-18.3-21.2c-5.1-6.1-11.1-14.7-13.3-19.2c-2.2-4.5,3.3-1.7,12.3,6.2
			c9,7.9,24.3,20.9,34,29s24.4,19.8,32.7,26.1c8.3,6.3,24.3,19.3,35.7,29c11.4,9.7,26.8,23,34.3,29.6
			C708.2,455.3,720.3,465.9,727.6,472.2z"/>
	</g>
	<g>
		<path fill="#546A3D" d="M672.6,757.8c-23.7,22-44.4,38.2-62.3,48.6c-17.8,10.5-34.8,15.7-51,15.7c-18.6,0-33.6-7.3-45-21.9
			c-11.4-14.6-17.1-34.2-17.1-58.8c0-36.9,7.9-81.2,23.8-132.9c15.8-51.7,35.1-99.3,57.7-142.9l66.3-24.8c2.1-0.7,3.7-1.1,4.7-1.1
			c5,0,9.2,3.7,12.4,11.2c3.2,7.5,4.8,17.5,4.8,30.2c0,35.9-8.2,70.6-24.5,104.2c-16.4,33.6-41.9,69.4-76.7,107.6
			c-1.4,18.3-2.1,30.8-2.1,37.7c0,15.3,2.8,27.4,8.4,36.4c5.6,9,13,13.4,22.2,13.4c9.4,0,19.4-3.4,30-10.3
			c10.6-6.9,26.8-21.1,48.6-42.7V757.8z M572.6,654.7c22.1-24.8,40-52.6,53.8-83.4c13.7-30.8,20.6-57.3,20.6-79.5
			c0-6.5-1-11.8-2.9-15.7c-1.9-4-4.4-5.9-7.3-5.9c-6.4,0-15.8,16.2-28.1,48.6C596.5,551.1,584.4,596.5,572.6,654.7z"/>
	</g>
	<g>
		<path fill="#B8C74C" d="M1504,678.9c-26.2,76.5-86.6,128.3-135,115.7c-48.4-12.6-66.5-84.9-40.3-161.4s86.6-128.3,135-115.7
			C1512.1,530.1,1530.1,602.4,1504,678.9z"/>
		<g>
			<path fill="#E5EBBE" d="M1461.9,612.1c-1.1-5.8,0.1-8.5,2.7-5.8s6.5,7.5,8.7,10.8c2.2,3.3,5.2,10.6,6.7,16.3s3.5,15.2,4.3,21.2
				s1.2,15.3,0.8,20.6c-0.4,5.3-1.6,13.5-2.7,18.1c-1.1,4.6-3.2,11.2-4.6,14.5c-1.5,3.3-5.1,10.8-8.1,16.5s-7.9,13.3-11,16.8
				c-3,3.5-8.5,9-12.1,12.1c-3.6,3.2-9.4,7.3-12.8,9.1c-3.4,1.9-11.4,4-17.7,4.7s-14.1,0.9-17.3,0.4c-3.2-0.5-6.9-2.3-8.3-3.9
				s-1.8-5.6-1.1-9c0.7-3.4,4-9.3,7.3-13.1c3.3-3.9,9.3-10.1,13.3-13.9c4-3.7,11.7-9.7,17.1-13.2c5.4-3.5,11.3-8.2,13.2-10.5
				c1.9-2.3,5.4-7.3,7.8-11.1c2.4-3.8,6.7-12.3,9.6-18.7c0,0,0,0,0.1-1.2c0.1-1.2,0.1-1.2,0.1-1.2c2.1-7,4.1-16.3,4.5-20.7
				c0.4-4.4,0.9-12.5,1.1-18C1463.8,627.3,1463,618,1461.9,612.1z"/>
		</g>
	</g>
	<g>
		<path fill="#B8C74C" d="M1002,677.9c-26.2,76.5-86.6,128.3-135,115.7c-48.4-12.6-66.5-84.9-40.3-161.4s86.6-128.3,135-115.7
			C1010.1,529.1,1028.1,601.4,1002,677.9z"/>
		<g>
			<path fill="#E5EBBE" d="M959.9,611.1c-1.1-5.8,0.1-8.5,2.7-5.8c2.6,2.6,6.5,7.5,8.7,10.8c2.2,3.3,5.2,10.6,6.7,16.3
				s3.5,15.2,4.3,21.2c0.9,6,1.2,15.3,0.8,20.6c-0.4,5.3-1.6,13.5-2.7,18.1c-1.1,4.6-3.2,11.2-4.6,14.5c-1.5,3.3-5.1,10.8-8.1,16.5
				c-3,5.7-7.9,13.3-11,16.8c-3,3.5-8.5,9-12.1,12.1c-3.6,3.2-9.4,7.3-12.8,9.1s-11.4,4-17.7,4.7s-14.1,0.9-17.3,0.4
				c-3.2-0.5-6.9-2.3-8.3-3.9c-1.3-1.6-1.8-5.6-1.1-9c0.7-3.4,4-9.3,7.3-13.1s9.3-10.1,13.3-13.9c4-3.7,11.7-9.7,17.1-13.2
				s11.3-8.2,13.2-10.5c1.9-2.3,5.4-7.3,7.8-11.1c2.4-3.8,6.7-12.3,9.6-18.7c0,0,0,0,0.1-1.2c0.1-1.2,0.1-1.2,0.1-1.2
				c2.1-7,4.1-16.3,4.5-20.7c0.4-4.4,0.9-12.5,1.1-18C961.8,626.3,961,617,959.9,611.1z"/>
		</g>
	</g>
</g>
</svg>
